# Blender 4.3.2
# www.blender.org
mtllib cabe_test2.mtl
o Cube
v 0.475806 0.475806 -0.475806
v 0.475806 -0.475806 -0.475806
v -0.475806 0.475806 -0.475806
v -0.475806 -0.475806 -0.475806
v -0.286266 -0.475806 -0.475806
v -0.269602 0.475806 -0.475806
v 0.470713 0.000821 -0.475806
v -0.475806 0.000000 -0.475806
v -0.286266 0.000000 -0.475806
v 0.103102 0.475806 -0.475806
v 0.094770 -0.475806 -0.475806
v 0.092223 0.000410 -0.475806
v 0.473259 0.238313 -0.475806
v -0.475806 0.237903 -0.475806
v -0.277934 0.237903 -0.475806
v 0.097663 0.238108 -0.475806
v 0.473259 -0.237493 -0.475806
v -0.475806 -0.237903 -0.475806
v -0.286266 -0.237903 -0.475806
v 0.093497 -0.237698 -0.475806
v -0.475806 0.475806 -0.193520
v -0.475806 -0.475806 -0.193520
v -0.475806 0.000000 -0.193520
v -0.475806 0.237903 -0.193520
v -0.475806 -0.237903 -0.193520
v -0.663458 0.475806 -0.193520
v -0.663458 -0.475806 -0.193520
v -0.663458 0.000000 -0.193520
v -0.663458 0.237903 -0.193520
v -0.663458 -0.237903 -0.193520
v -0.663458 0.475806 0.660259
v -0.663458 -0.475806 0.660259
v -0.663458 0.000000 0.660259
v -0.663458 0.237903 0.660259
v -0.663458 -0.237903 0.660259
v -0.663458 -0.237903 0.233369
v -0.663458 0.000000 0.233369
v -0.663458 0.237903 0.233369
v -0.663458 0.475806 0.233369
v -0.663458 -0.475806 0.233369
vn -0.0000 -0.0000 -1.0000
vn -1.0000 -0.0000 -0.0000
vt 0.562500 0.437500
vt 0.625000 0.437500
vt 0.625000 0.500000
vt 0.562500 0.500000
vt 0.562500 0.250000
vt 0.625000 0.250000
vt 0.625000 0.375000
vt 0.562500 0.375000
vt 0.437500 0.250000
vt 0.500000 0.250000
vt 0.500000 0.375000
vt 0.437500 0.375000
vt 0.437500 0.437500
vt 0.500000 0.437500
vt 0.500000 0.500000
vt 0.437500 0.500000
vt 0.375000 0.375000
vt 0.375000 0.437500
vt 0.375000 0.500000
vt 0.375000 0.250000
s 0
usemtl Material
f 16/1/1 10/2/1 1/3/1 13/4/1
f 14/5/1 3/6/1 6/7/1 15/8/1
f 18/9/1 8/10/1 9/11/1 19/12/1
f 20/13/1 12/14/1 7/15/1 17/16/1
f 19/12/1 9/11/1 12/14/1 20/13/1
f 15/8/1 6/7/1 10/2/1 16/1/1
f 9/11/1 15/8/1 16/1/1 12/14/1
f 8/10/1 14/5/1 15/8/1 9/11/1
f 12/14/1 16/1/1 13/4/1 7/15/1
f 5/17/1 19/12/1 20/13/1 11/18/1
f 11/18/1 20/13/1 17/16/1 2/19/1
f 4/20/1 18/9/1 19/12/1 5/17/1
f 8/10/2 18/9/2 25/9/2 23/10/2
f 14/5/2 8/10/2 23/10/2 24/5/2
f 18/9/2 4/20/2 22/20/2 25/9/2
f 3/6/2 14/5/2 24/5/2 21/6/2
f 23/10/1 25/9/1 30/9/1 28/10/1
f 24/5/1 23/10/1 28/10/1 29/5/1
f 21/6/1 24/5/1 29/5/1 26/6/1
f 25/9/1 22/20/1 27/20/1 30/9/1
f 37/10/2 36/9/2 35/9/2 33/10/2
f 38/5/2 37/10/2 33/10/2 34/5/2
f 39/6/2 38/5/2 34/5/2 31/6/2
f 36/9/2 40/20/2 32/20/2 35/9/2
f 30/9/2 27/20/2 40/20/2 36/9/2
f 26/6/2 29/5/2 38/5/2 39/6/2
f 29/5/2 28/10/2 37/10/2 38/5/2
f 28/10/2 30/9/2 36/9/2 37/10/2
